<svg width="85" height="70" viewBox="0 0 85 70" fill="none" xmlns="http://www.w3.org/2000/svg">
<path d="M20.2904 36.3455C20.67 36.3364 21.0591 36.3376 21.3558 36.3413C21.5035 36.3431 21.627 36.3455 21.7131 36.3474L21.8124 36.3498L21.8378 36.3505L21.844 36.3507L21.8453 36.3507L21.8454 36.3508C23.4566 36.3992 24.7987 36.5727 25.7707 36.7353C26.2945 36.823 26.7954 36.486 26.9116 35.9677C27.0277 35.4495 26.7185 34.9309 26.2074 34.7867C25.8159 34.6761 22.2022 33.6022 18.3493 31.0882C14.4927 28.5718 10.5025 24.6844 9.14168 18.9738L9.14168 18.9738C8.28644 15.3849 8.72186 12.1442 9.32714 9.82124L8.35945 9.5691L7.53714 9.00005C5.72898 11.613 3.0529 16.1963 1.75425 22.491C0.668182 27.7553 0.955672 32.2285 1.37812 35.1556C1.41659 35.4221 1.56093 35.6619 1.77847 35.8206C4.71409 37.9624 7.16927 38.4304 8.88253 38.4481H8.88257C10.8089 38.4678 12.8282 37.9232 14.7169 37.4138L14.7281 37.4108L14.7352 37.4089C16.6826 36.8837 18.5191 36.3884 20.2904 36.3455ZM20.2904 36.3455L20.2663 35.3458M20.2904 36.3455C20.2904 36.3455 20.2905 36.3455 20.2905 36.3455L20.2663 35.3458M20.2663 35.3458C18.3743 35.3916 16.4395 35.9135 14.5402 36.4258C12.5925 36.9511 10.682 37.4664 8.89281 37.4481L22.0442 35.3568C21.9883 35.3548 21.9321 35.3529 21.8755 35.3512C21.8755 35.3512 21.0589 35.3267 20.2663 35.3458Z" fill="#EA9127" stroke="white" stroke-width="2" stroke-linejoin="round"/>
<path d="M6.37181 37.2743C4.96043 36.891 3.87331 36.3191 3.18464 35.9036C2.88233 35.7152 2.49573 35.6993 2.17405 35.8762C1.78823 36.0884 1.58658 36.5279 1.67743 36.9588C2.33065 40.0565 3.7938 44.8285 7.35332 49.5475C14.8453 59.4804 25.9091 61.6132 28.7975 62.0804C29.117 62.1321 29.4417 62.026 29.669 61.7956C29.8963 61.5652 29.9981 61.2391 29.9422 60.9204C29.4812 58.2941 29.1121 54.5357 29.6414 50.0813L29.6414 50.0813C30.1733 45.605 31.4226 42.023 32.4918 39.5728C32.7023 39.0905 32.503 38.5275 32.0358 38.2852C26.8987 35.6201 22.8184 35.3193 19.9645 35.5915L20.0594 36.587L19.9645 35.5915C18.0702 35.7723 16.3178 36.2536 14.7078 36.6958C14.1013 36.8624 13.5149 37.0235 12.9489 37.1608C10.832 37.6744 8.79025 37.9313 6.37183 37.2743L6.37181 37.2743Z" fill="#EA9127" stroke="white" stroke-width="2" stroke-linejoin="round"/>
<path d="M18.8274 48.3224L18.8274 48.3225C15.3666 49.7196 12.2179 50.1022 9.97935 50.174C9.58801 50.1866 9.23999 50.4264 9.08889 50.7876C8.93779 51.1488 9.0114 51.565 9.27725 51.8524C10.0123 52.6473 10.8201 53.4395 11.7079 54.214L11.708 54.214C17.5129 59.2774 24.0727 61.2537 28.7848 62.0787C29.1032 62.1344 29.429 62.0328 29.6592 61.8058C29.8894 61.5789 29.9958 61.2547 29.9446 60.9355C29.247 56.5802 28.9524 50.4737 30.9577 43.7577L30.9577 43.7576C31.4084 42.248 31.9319 40.8533 32.4915 39.5739C32.6983 39.1011 32.5114 38.5486 32.06 38.2984C31.6086 38.0483 31.041 38.1828 30.7498 38.6088C29.2183 40.8492 25.474 45.6394 18.8274 48.3224Z" fill="#903518" stroke="white" stroke-width="2" stroke-linejoin="round"/>
<path d="M9.06705 8.86199C8.85738 8.65233 8.56549 8.54652 8.27018 8.57313C7.97487 8.59975 7.70659 8.75604 7.5378 8.99981C6.16398 10.9838 4.60907 13.6429 3.35693 16.9686C1.48552 21.9391 1.04954 26.3819 1.00399 29.4231C0.997877 29.8316 1.24078 30.2026 1.61753 30.3605C1.99429 30.5183 2.42915 30.4311 2.71595 30.1402C3.36574 29.4812 4.01232 29.0743 4.57245 28.8129L4.57251 28.8129C6.78897 27.7783 9.31448 28.2627 11.4853 29.1792C13.0543 29.8416 14.3283 30.6847 14.9791 31.1535C15.1684 31.3004 15.3313 31.4217 15.4621 31.5174C15.901 31.8387 16.5162 31.7503 16.8469 31.3184C17.1775 30.8865 17.1023 30.2695 16.6775 29.9297C16.6081 29.8741 16.4374 29.74 16.1807 29.5542C14.3676 28.1421 10.0591 24.27 8.92162 17.9076L8.00479 18.0715L8.92162 17.9076C8.31087 14.4916 8.83579 11.6062 9.32405 9.8349C9.41967 9.48801 9.32155 9.11649 9.06711 8.86205L9.06705 8.86199Z" fill="#F6D365" stroke="white" stroke-width="2" stroke-linejoin="round"/>
<path d="M3.40597 36.0911C3.21614 35.8758 2.94298 35.7525 2.65598 35.7525H2.65592C2.35544 35.7525 2.0709 35.8876 1.88098 36.1205C1.69107 36.3533 1.61593 36.6592 1.67633 36.9536C2.11042 39.0687 2.92206 41.9176 4.52135 45.0234C6.06796 48.0269 7.8438 50.2852 9.2735 51.8481C9.47071 52.0637 9.75233 52.1823 10.0443 52.1726C12.5409 52.0902 17.164 51.606 22.1752 48.9645C27.812 45.9933 30.9934 41.8457 32.407 39.728C32.6769 39.3237 32.6169 38.7838 32.2648 38.4486C31.9127 38.1134 31.3705 38.0799 30.9799 38.3694C29.9252 39.1509 21.9782 44.8114 12.6198 42.058C7.85515 40.6561 4.82145 37.6961 3.40597 36.0911Z" fill="#CC5520" stroke="white" stroke-width="2" stroke-linejoin="round"/>
<path d="M27.6898 1.16341C28.745 1.84212 30.2397 2.98052 31.617 4.75889L27.6898 1.16341ZM27.6898 1.16341C27.5296 1.05851 27.3399 1 27.142 1H27.1419C26.767 1 26.4299 1.20876 26.259 1.53032C25.6489 2.63581 24.8506 4.40514 24.521 6.7109L24.521 6.71093C24.2646 8.50478 24.3757 10.0373 24.5435 11.1361C24.5887 11.432 24.764 11.6921 25.0214 11.8449C25.2787 11.9978 25.591 12.0273 25.8724 11.9254C26.9039 11.5521 28.0448 11.189 29.2886 10.8658C30.6415 10.5143 31.9125 10.2627 33.0765 10.0826C33.3755 10.0363 33.6374 9.85726 33.789 9.59551C33.9406 9.33375 33.9655 9.01745 33.8569 8.73515C33.4469 7.67006 32.7637 6.23939 31.617 4.75895L27.6898 1.16341Z" fill="#EA9127" stroke="white" stroke-width="2" stroke-linejoin="round"/>
<path d="M48.0426 5.00894C46.5974 6.54001 45.7411 8.07349 45.2469 9.14405C45.1206 9.41773 45.1245 9.73379 45.2575 10.0043C45.3904 10.2748 45.6383 10.4709 45.9322 10.538C47.0424 10.7916 48.2488 11.1188 49.5265 11.5438L49.5265 11.5438C50.7973 11.9664 51.9536 12.4242 52.9902 12.8835C53.2628 13.0043 53.5751 12.9971 53.8419 12.864C54.1086 12.7308 54.3021 12.4855 54.3694 12.1951C54.6322 11.0617 54.8988 9.30985 54.6645 7.19117C54.436 5.12408 53.8188 3.50569 53.3276 2.4655C53.1624 2.11567 52.8102 1.89252 52.4234 1.89252H52.4233C52.2576 1.89252 52.0944 1.93371 51.9485 2.0124C50.9191 2.56772 49.4642 3.50291 48.0426 5.00894ZM48.0426 5.00894L48.7674 5.69311L48.0426 5.00894Z" fill="#EA9127" stroke="white" stroke-width="2" stroke-linejoin="round"/>
<path d="M26.7534 25.9517C26.3351 25.9323 25.9731 25.6543 25.8465 25.2551C25.2922 23.507 24.7501 21.2859 24.487 18.679L26.7534 25.9517ZM26.7534 25.9517C27.1718 25.9711 27.5579 25.7278 27.7209 25.3421M26.7534 25.9517L27.7209 25.3421M27.7209 25.3421C29.0971 22.0854 30.7885 20.0728 32.1307 18.8131L31.4709 18.1101M27.7209 25.3421L31.4709 18.1101M31.4709 18.1101L32.1307 18.8131C32.3249 18.6309 32.5355 18.4452 32.7548 18.2519C33.853 17.2838 35.1699 16.1229 35.7472 14.2243C36.2828 12.4626 35.9858 10.8211 35.6595 9.72662C35.5221 9.26583 35.0762 8.96804 34.598 9.01766M31.4709 18.1101L34.598 9.01766M34.598 9.01766C33.3372 9.14846 31.9262 9.36924 30.4061 9.732C28.3361 10.226 26.5473 10.8678 25.0673 11.5063C24.7321 11.6509 24.5023 11.9667 24.4679 12.3301M34.598 9.01766L24.4679 12.3301M24.4679 12.3301C24.3021 14.0775 24.24 16.2331 24.487 18.6789L24.4679 12.3301Z" fill="#E39334" stroke="white" stroke-width="2" stroke-linejoin="round"/>
<path d="M41.5019 8.94356C39.3924 8.7558 37.4945 8.78085 35.876 8.89876C35.5178 8.91845 35.1929 9.13002 35.0325 9.45885L35.0324 9.45897C34.9187 9.69195 34.9016 9.95605 34.9769 10.1966C35.1452 10.7656 35.3437 11.6977 35.2385 12.8407L35.2385 12.8408C35.1955 13.3093 35.0963 14.256 34.5624 15.2656L34.5623 15.2657C34.2427 15.8701 33.9292 16.1959 33.4127 16.6706C33.345 16.7328 33.2743 16.7971 33.2003 16.8644C32.6837 17.3343 32.0105 17.9467 31.131 18.9611L31.131 18.9611C30.6178 19.553 30.2278 20.0583 29.9879 20.3789C29.8105 20.616 29.7473 20.9194 29.8152 21.2076C29.8832 21.4958 30.0753 21.739 30.34 21.8718L38.7346 26.0851C39.0241 26.2304 39.366 26.2265 39.6521 26.0747C40.3627 25.6974 42.3462 24.5992 44.3001 22.7402C46.2525 20.8825 48.2316 18.2107 48.8209 14.6863C48.9908 13.6696 49.0671 12.4489 48.9064 11.0524C48.8604 10.6528 48.5795 10.3197 48.1934 10.2069C46.3718 9.67473 44.1154 9.1762 41.502 8.94356L41.5019 8.94356Z" fill="#F6D365" stroke="white" stroke-width="2" stroke-linejoin="round"/>
<path d="M49.0268 23.1707C50.4873 24.1209 50.5733 25.8258 50.5765 25.9631C50.5878 26.4341 50.9262 26.8333 51.389 26.9216C51.8517 27.0098 52.3133 26.7631 52.4971 26.3293C53.5313 23.8878 54.5831 20.4481 54.6162 16.2935C54.6252 15.1639 54.5579 14.1052 54.4428 13.1274C54.3982 12.7475 54.1451 12.4403 53.8087 12.3107L51.7213 11.4545L49.6133 10.5899C49.2956 10.4595 48.9331 10.5014 48.6535 10.7007C48.3738 10.9001 48.2159 11.229 48.2355 11.5719C48.3066 12.8214 48.2622 15.0414 47.2282 17.5106L47.2281 17.5106C46.5209 19.1998 45.5906 20.4328 44.8753 21.2333C44.5692 21.576 44.536 22.0831 44.7948 22.4628C45.0535 22.8425 45.5377 22.9969 45.9686 22.8373C46.1221 22.7804 47.6319 22.2632 49.0268 23.1707ZM49.0268 23.1707L49.5722 22.3325M49.0268 23.1707L49.5722 22.3325M49.5722 22.3325C48.719 21.7774 47.8431 21.6307 47.1319 21.6394L53.4497 13.2442L54.4497 13.2442V13.2443C54.4497 13.5777 54.2836 13.8891 54.0067 14.0748C53.8671 14.1684 53.7086 14.2239 53.5462 14.2396C53.596 14.8906 53.6219 15.5734 53.6162 16.2855C53.5916 19.3814 52.9778 22.0669 52.2376 24.2158C52.5483 25.0881 52.5732 25.7975 52.576 25.9154L51.5763 25.9392L50.6555 25.5492C50.8287 25.1402 51.0022 24.7018 51.1703 24.2356C50.885 23.5843 50.3993 22.8706 49.5722 22.3325Z" fill="#EA9127" stroke="white" stroke-width="2" stroke-linejoin="round"/>
<path d="M27.4525 25.3213C28.0242 25.5112 28.7898 25.7395 29.707 25.9396L27.4525 25.3213ZM27.4525 25.3213C27.148 25.2143 26.7997 25.2578 26.5252 25.4612C26.1234 25.7589 26.0033 26.3077 26.2441 26.7461L32.1145 37.4331C32.2281 37.6398 32.4111 37.7998 32.6312 37.8846C33.9805 38.405 36.0436 39.0223 38.6219 39.1294L38.622 39.1294C41.3419 39.2424 43.5494 38.7423 44.9655 38.3042C45.1919 38.2342 45.386 38.086 45.5133 37.8862L52.072 27.5911C52.2939 27.2429 52.2789 26.7942 52.0344 26.4616C51.7899 26.1289 51.3661 25.9807 50.9676 26.0885C50.2866 26.2726 49.3932 26.4792 48.334 26.631L48.334 26.631C47.4453 26.7584 46.3505 26.8599 44.9015 26.8534C43.4733 26.847 42.7413 26.7406 42.018 26.6236C41.9669 26.6153 41.9158 26.607 41.8644 26.5986C41.1435 26.4812 40.3669 26.3546 39.0053 26.3093L39.0053 26.3093C37.7691 26.2682 37.0953 26.3288 36.4529 26.3866C36.4117 26.3903 36.3707 26.394 36.3297 26.3976C35.6934 26.4543 35.0258 26.5048 33.6581 26.4377L33.6581 26.4377C32.0167 26.3572 30.7955 26.177 29.7071 25.9396L27.4525 25.3213Z" fill="#F6D365" stroke="white" stroke-width="2" stroke-linejoin="round"/>
<path d="M32.9995 38.1149C33.2802 38.1278 33.5427 38.2582 33.7225 38.4742L38.6623 44.409C38.9518 44.7568 38.9716 45.2557 38.7106 45.6254C37.2138 47.7458 35.5692 50.4229 34.0842 53.6583L33.1927 53.2491L34.0842 53.6583C32.7185 56.6337 31.8025 59.3954 31.1763 61.7568C31.0552 62.2134 30.6311 62.523 30.1593 62.4992C29.6875 62.4754 29.2967 62.1246 29.2222 61.6581C28.5417 57.3963 28.1877 51.2239 30.0723 44.2804M32.9995 38.1149L30.0723 44.2804M32.9995 38.1149C32.7187 38.1021 32.4455 38.2081 32.2467 38.4068L32.2467 38.4069C32.1587 38.4948 32.0879 38.5984 32.038 38.7124C31.3139 40.3636 30.6312 42.2216 30.0723 44.2804M32.9995 38.1149L31.0374 44.5423L30.0723 44.2804" fill="#F6D365" stroke="white" stroke-width="2" stroke-linejoin="round"/>
<path d="M42.7259 39.7052C40.5983 41.9146 38.0654 44.9605 35.7473 48.9253C33.078 53.4908 31.5881 57.7446 30.7257 60.9743C30.653 61.2466 30.6985 61.5369 30.8511 61.7738C31.0038 62.0107 31.2492 62.1723 31.5272 62.2186C34.731 62.7534 37.3661 62.694 39.1792 62.5349L42.7259 39.7052ZM42.7259 39.7052C42.7324 39.6984 42.7389 39.6916 42.7456 39.685C42.9331 39.4973 43.1876 39.3918 43.4529 39.3918H43.453C43.8541 39.3918 44.2164 39.6315 44.3733 40.0006C44.4286 40.1307 44.4547 40.2682 44.453 40.4042L42.7259 39.7052Z" fill="#903518" stroke="white" stroke-width="2" stroke-linejoin="round"/>
<path d="M38.5831 25.8674C38.5342 25.8173 38.4801 25.7724 38.4218 25.7335C37.6897 25.2458 36.6944 24.6088 35.4794 23.9065L35.4794 23.9065C34.8273 23.5297 34.3144 23.2511 33.766 22.9535L33.7658 22.9535C32.949 22.5106 31.8814 21.9453 30.6077 21.3078C30.3703 21.1891 30.0955 21.1695 29.8438 21.2534C29.592 21.3374 29.384 21.518 29.2654 21.7554C29.051 22.1849 28.6967 23.0378 28.7024 24.1653C28.7075 25.1543 28.9874 25.9173 29.1799 26.3412C29.3476 26.7107 29.7221 26.9422 30.1277 26.9271C31.073 26.8918 32.0996 26.8956 33.1955 26.9605C34.8574 27.0589 36.3575 27.2788 37.6678 27.5457C38.098 27.6333 38.5351 27.4301 38.7453 27.0446C38.9555 26.6592 38.8898 26.1817 38.5832 25.8675L38.5831 25.8674Z" fill="#532322" stroke="white" stroke-width="2" stroke-linejoin="round"/>
<path d="M40.295 26.6506L39.8001 25.7816C41.1954 24.987 42.7261 24.1878 44.3917 23.4172L40.295 26.6506ZM40.295 26.6506L40.4279 27.6417C41.7118 27.4695 43.1829 27.3556 44.807 27.374L44.8071 27.374C45.9187 27.3866 46.9513 27.4596 47.8931 27.5669C48.2896 27.612 48.675 27.4172 48.8736 27.0711C49.1009 26.6752 49.4326 25.9781 49.5333 25.0482L49.5333 25.0481C49.6623 23.8573 49.3436 22.9259 49.1574 22.4812C48.9479 21.9806 48.3775 21.7385 47.8719 21.9355C46.755 22.3708 45.5915 22.862 44.3917 23.4172L40.295 26.6506Z" fill="#532322" stroke="white" stroke-width="2" stroke-linejoin="round"/>
<path d="M38.731 38.4194L38.7309 38.4194C37.1493 38.3652 35.7986 38.1171 34.7482 37.8482L34.5002 38.817L33.7223 39.4454L37.7635 44.4479C37.9453 44.6729 38.2156 44.8081 38.5046 44.8188C38.7937 44.8294 39.0732 44.7143 39.271 44.5033L43.6967 39.7812C43.9923 39.4658 44.0518 38.9961 43.8441 38.6169C43.6364 38.2378 43.2086 38.035 42.7836 38.1143C41.71 38.3147 40.3314 38.4741 38.731 38.4194Z" fill="#532322" stroke="white" stroke-width="2" stroke-linejoin="round"/>
<path d="M39.2646 26.6829C39.255 26.3136 39.4498 25.969 39.7712 25.7869C40.5364 25.3533 41.575 24.7894 42.8374 24.1764L39.2646 26.6829ZM39.2646 26.6829C39.2742 27.0522 39.4867 27.3861 39.8171 27.5513M39.2646 26.6829L39.8171 27.5513M39.8171 27.5513L39.8172 27.5514C39.9952 27.6404 40.1957 27.6742 40.393 27.6487M39.8171 27.5513L40.393 27.6487M48.6493 21.9356C48.8944 22.0375 49.0889 22.2325 49.1901 22.4778C49.3731 22.9216 49.6652 23.7978 49.5783 24.9221L48.6493 21.9356ZM48.6493 21.9356C48.4043 21.8338 48.1288 21.8336 47.8836 21.9349M48.6493 21.9356L47.8836 21.9349M47.8836 21.9349C46.5674 22.479 45.4618 22.9659 44.6151 23.3491L47.8836 21.9349ZM48.9457 27.0578C48.7518 27.4143 48.3616 27.6183 47.9581 27.574C47.0178 27.4709 45.9936 27.4008 44.8958 27.3867L48.9457 27.0578ZM48.9457 27.0578C49.168 26.6489 49.5021 25.9082 49.5783 24.9221L48.9457 27.0578ZM40.393 27.6487C41.7191 27.4768 43.2311 27.3654 44.8958 27.3867L40.393 27.6487ZM44.615 23.3492C44.0464 23.6065 43.5149 23.8474 42.8374 24.1764L44.615 23.3492Z" fill="#532322" stroke="white" stroke-width="2" stroke-linejoin="round"/>
<path d="M26.0924 25.6598C25.9746 25.542 25.8881 25.3967 25.8408 25.237C25.0336 22.5154 24.3729 19.1569 24.3367 15.304M26.0924 25.6598L28.4528 17.6932C28.9234 17.1397 29.483 16.7826 30.2609 16.2861C30.4111 16.1902 30.5694 16.0891 30.7368 15.9805C31.7394 15.3296 32.8912 14.4973 34.0425 13.009C34.8304 11.9907 35.3228 11.047 35.6078 10.4339C35.7597 10.1071 35.724 9.72386 35.5145 9.43072C35.3049 9.13758 34.9538 8.97987 34.5954 9.01791C33.2809 9.15742 31.8023 9.39262 30.2054 9.78055L30.4414 10.7523L30.2054 9.78055C28.2157 10.2639 26.4861 10.8767 25.0412 11.4876C24.696 11.6336 24.4614 11.9604 24.4335 12.3343C24.3632 13.276 24.327 14.2674 24.3367 15.304M26.0924 25.6598L26.0925 25.6598C26.407 25.9743 26.8914 26.0433 27.2812 25.8291M26.0924 25.6598L27.2812 25.8291M24.3367 15.304L25.3367 15.2946M24.3367 15.304L25.3367 15.2946M25.3367 15.2946C25.3494 16.646 25.4411 17.9351 25.5902 19.1554L25.4307 12.4087C25.3624 13.3239 25.3272 14.2873 25.3367 15.2946ZM27.2812 25.8291C27.671 25.6149 27.8724 25.169 27.7756 24.7349M27.2812 25.8291L27.7756 24.7349M27.7756 24.7349C26.816 20.4351 27.7034 18.5745 28.4527 17.6933L27.7756 24.7349Z" fill="#CC5520" stroke="white" stroke-width="2" stroke-linejoin="round"/>
<path d="M41.818 8.97323C39.5616 8.75167 37.5462 8.77608 35.8576 8.90001C35.5612 8.92177 35.2898 9.07424 35.117 9.31607C34.9443 9.55791 34.8881 9.86406 34.9636 10.1515C35.3054 11.4523 36.4188 14.9876 39.8312 17.7224C42.0257 19.4812 44.2557 20.1741 45.5582 20.4693C45.8548 20.5365 46.1658 20.4651 46.4033 20.2754C46.4816 20.2128 46.5491 20.1396 46.6045 20.0588C47.322 19.0299 48.3871 17.2019 48.8093 14.6978C49.0519 13.2596 49.0138 12.0048 48.9062 11.0542C48.8609 10.6539 48.5798 10.3198 48.1931 10.2068C46.4508 9.69767 44.3024 9.21715 41.818 8.97323ZM41.818 8.97323L41.7203 9.96845M41.818 8.97323L41.7203 9.96845M41.7203 9.96845C39.9663 9.79622 38.3623 9.77701 36.9508 9.83791L47.9126 11.1667C46.2201 10.6721 44.1334 10.2054 41.7203 9.96845Z" fill="#CC5520" stroke="white" stroke-width="2" stroke-linejoin="round"/>
<path d="M48.4041 10.9558C48.6693 10.5628 49.174 10.41 49.6126 10.5899L51.7205 11.4545L53.8284 12.3191C54.1656 12.4574 54.4009 12.7682 54.4424 13.1302C54.6119 14.6065 54.6899 16.3982 54.5066 18.4177C54.2042 21.7513 53.3041 24.4494 52.4943 26.3341C52.2803 26.8323 51.7082 27.0691 51.2046 26.868C50.7011 26.6669 50.4495 26.1011 50.6376 25.5925C50.7408 25.3133 51.2159 23.9762 51.3373 22.3088C51.4594 20.6326 51.2159 18.7556 50.0323 17.2547C49.6929 16.8244 49.2005 16.3279 48.479 15.8785C48.1292 15.6607 47.9489 15.2506 48.0248 14.8456C48.0922 14.4857 48.1497 14.0984 48.1906 13.6859L48.4041 10.9558ZM48.4041 10.9558C48.276 11.1457 48.2208 11.3665 48.2354 11.5823M48.4041 10.9558L48.2354 11.5823M48.2354 11.5823C48.2702 12.2045 48.2673 12.9121 48.1907 13.6858L48.2354 11.5823Z" fill="#CC5520" stroke="white" stroke-width="2" stroke-linejoin="round"/>
<path d="M47.7672 5.30863L47.7673 5.30862C49.2731 3.6271 50.8532 2.60431 51.9479 2.01276C52.1896 1.88212 52.4745 1.85671 52.7355 1.94251C52.9966 2.02832 53.2108 2.21776 53.3279 2.46635C53.793 3.45361 54.3176 4.84489 54.582 6.57147L54.582 6.57154C54.9469 8.95614 54.6568 10.9433 54.3698 12.193C54.2603 12.67 53.8216 12.9976 53.3331 12.9672C52.8446 12.9369 52.4499 12.5574 52.4003 12.0705C52.2765 10.855 51.4962 9.82489 50.4072 9.39836L47.7672 5.30863ZM47.7672 5.30863C46.5061 6.71701 45.7248 8.10998 45.2471 9.14363L46.1549 9.56314M47.7672 5.30863L46.1549 9.56314M46.1549 9.56314L46.8893 10.2419C47.8042 9.25185 49.2125 8.9305 50.4072 9.39835L46.1549 9.56314Z" fill="#CC5520" stroke="white" stroke-width="2" stroke-linejoin="round"/>
<path d="M24.5439 11.1361C24.6184 11.6245 25.0384 11.9852 25.5324 11.9852H25.5325C26.0318 11.9852 26.4546 11.6168 26.523 11.1221C26.6911 9.90654 27.5103 8.91323 28.5977 8.54526C29.8342 8.12689 31.2765 8.56654 32.1246 9.69514C32.4245 10.0941 32.9726 10.2109 33.4091 9.96884C33.8456 9.72673 34.0367 9.19986 33.8569 8.73423C33.3915 7.52858 32.544 5.76951 31.0017 4.01284L31.0017 4.01284C29.8302 2.67843 28.6244 1.76328 27.6827 1.15854C27.45 1.00913 27.1658 0.96274 26.8977 1.03038C26.6296 1.09802 26.4015 1.27366 26.2675 1.51557C25.6683 2.59771 24.8827 4.32637 24.5405 6.5815C24.2584 8.44071 24.374 10.0235 24.5439 11.1361Z" fill="#CC5520" stroke="white" stroke-width="2" stroke-linejoin="round"/>
<path d="M30.7313 60.9539C30.5901 61.4416 30.8367 61.9577 31.3049 62.1542C31.7731 62.3506 32.3142 62.1651 32.5632 61.7227C33.2959 60.4213 34.6802 58.1658 36.6528 56.1738C38.6305 54.1767 41.1162 52.5275 44.0538 52.2631L44.0539 52.263C44.4627 52.2262 44.888 52.2154 45.3298 52.2364C45.6629 52.2521 45.9818 52.1009 46.1804 51.8331C46.379 51.5653 46.431 51.2161 46.3192 50.902C46.0083 50.029 45.7105 49.081 45.4437 48.0615L45.4437 48.0614C45.2852 47.4558 45.1492 46.8681 45.0321 46.301C44.9695 45.9981 44.7704 45.7411 44.4926 45.6051C44.2149 45.469 43.8898 45.4692 43.6122 45.6054C41.7107 46.5386 38.4826 48.4253 35.5499 51.9201C35.5479 51.9225 35.5459 51.9249 35.5439 51.9274C32.6164 55.4187 31.32 58.9209 30.7313 60.9539Z" fill="#CC5520" stroke="white" stroke-width="2" stroke-linejoin="round"/>
<path d="M29.7279 45.6466C28.9614 49.0788 28.4404 53.3224 28.8037 58.1317L28.8037 58.1318C28.8972 59.3679 29.0417 60.5456 29.2226 61.6608C29.2977 62.1244 29.6854 62.4732 30.1543 62.4992C30.6232 62.5252 31.0471 62.2214 31.173 61.769C31.449 60.7778 31.763 59.7483 32.121 58.6865L29.7279 45.6466ZM29.7279 45.6466C29.8128 45.2322 30.1547 44.9066 30.5894 44.8549C31.0925 44.7951 31.5608 45.1209 31.6796 45.6134L33.7047 54.0058C33.7547 54.2131 33.7372 54.4308 33.6547 54.6274C33.1274 55.8839 32.6094 57.2379 32.121 58.6864L29.7279 45.6466Z" fill="#CC5520" stroke="white" stroke-width="2" stroke-linejoin="round"/>
<path d="M30.6719 28.8659C29.9637 28.3731 28.9426 27.4885 28.0428 25.8666L27.9989 25.7867L27.997 25.7832C27.7315 25.2998 27.1247 25.1227 26.6408 25.3872C26.1569 25.6518 25.9786 26.2582 26.2422 26.7426C26.2587 26.773 26.2752 26.8031 26.2919 26.8331L32.1094 37.4238C32.2194 37.629 32.4006 37.7957 32.6311 37.8846C33.9983 38.4119 36.133 39.0518 38.8116 39.136C41.4412 39.2186 43.5774 38.7337 44.9655 38.3042C45.1919 38.2341 45.3861 38.0859 45.5134 37.886L48.7883 32.7431L52.0632 27.6002C52.3069 27.2175 52.2624 26.7186 51.9547 26.3851C51.647 26.0515 51.1534 25.967 50.7522 26.1791C49.8871 26.6365 48.3912 27.3802 46.4522 28.0884L46.4522 28.0884C44.4664 28.8137 41.6649 29.8315 38.7437 30.244C35.8133 30.6578 32.9303 30.4375 30.6719 28.8659Z" fill="#EA9127" stroke="white" stroke-width="2" stroke-linejoin="round"/>
<path d="M34.9769 10.1971C34.8642 9.83764 34.963 9.44538 35.2326 9.18226L35.2326 9.18219C35.4529 8.96719 35.7599 8.86559 36.0649 8.90675C36.3699 8.94791 36.639 9.12725 36.7944 9.39295C37.4733 10.5538 38.357 11.8508 39.5057 13.1687L39.5057 13.1687C41.8533 15.8625 44.371 17.569 46.2648 18.62C46.5186 18.7608 46.6986 19.0049 46.7583 19.2888C46.8179 19.5728 46.7513 19.8687 46.5756 20.0996L45.7215 21.2231C45.615 21.3632 45.4734 21.4727 45.3111 21.5405C43.137 22.4491 39.0892 23.7472 34.2167 22.9462C32.7781 22.7097 31.5096 22.3299 30.4276 21.9111C30.1354 21.798 29.9131 21.5545 29.827 21.2532C29.7409 20.9519 29.801 20.6277 29.9894 20.3774C30.9356 19.1194 31.8141 18.1875 32.4589 17.5555L32.4589 17.5555C32.8202 17.2014 33.098 16.9431 33.3245 16.7326C33.8323 16.2607 34.0818 16.0287 34.4337 15.4954L34.9769 10.1971ZM34.9769 10.1971C35.1695 10.8111 35.4071 11.8677 35.2271 13.1522L35.2271 13.1522M34.9769 10.1971L35.2271 13.1522M35.2271 13.1522C35.2247 13.1689 35.2224 13.1861 35.2199 13.2037M35.2271 13.1522L35.2199 13.2037M35.2199 13.2037C35.1502 13.7056 35.0263 14.5974 34.4337 15.4954L35.2199 13.2037Z" fill="#EA9127" stroke="white" stroke-width="2" stroke-linejoin="round"/>
<path d="M36.5383 48.977C37.2511 47.773 37.9811 46.657 38.71 45.6261C38.9714 45.2563 38.9517 44.7571 38.6621 44.4091L38.4446 44.1478L38.2271 43.8864C38.035 43.6555 37.7492 43.5233 37.4488 43.5262C37.1485 43.5291 36.8653 43.6668 36.6777 43.9014C36.4282 44.2132 36.1108 44.5213 35.7066 44.7755C34.8061 45.3416 33.7856 45.4401 32.8802 45.3511C31.9768 45.2623 31.269 44.9941 31.0737 44.9172C30.7689 44.7972 30.4246 44.8341 30.1521 45.016C29.8797 45.1978 29.7136 45.5017 29.7075 45.8292C29.6882 46.8748 29.6891 47.9484 29.7139 49.0487C29.7845 52.1912 30.0391 55.1327 30.4066 57.848C30.4686 58.3068 30.8375 58.6629 31.2982 58.7089C31.7589 58.7549 32.1909 58.4786 32.3425 58.0411C33.2941 55.2936 34.6314 52.1981 36.5383 48.977ZM36.5383 48.977L35.6778 48.4676M36.5383 48.977L35.6778 48.4676M35.6778 48.4676C34.1921 50.9771 33.0455 53.4117 32.1543 55.6701C32.2256 56.3187 32.304 56.9553 32.3885 57.5798L31.3975 57.7139L30.4526 57.3866C30.6611 56.7844 30.8876 56.1661 31.1336 55.5338C30.9141 53.4782 30.7648 51.3057 30.7136 49.0262C30.6975 48.3085 30.6916 47.6023 30.695 46.908C30.5344 46.8533 30.4138 46.8068 30.341 46.7782L30.7073 45.8477L31.7072 45.8662C31.7054 45.9641 31.7037 46.0623 31.7023 46.1608C32.8218 46.434 34.6413 46.6265 36.2389 45.622C36.2671 45.6043 36.2951 45.5863 36.3226 45.5681C36.5737 45.1927 36.8254 44.8272 37.0769 44.4715L37.3187 44.6424L37.4585 44.5261L38.0004 44.9597L38.2393 45.1509C38.2153 45.1809 38.1907 45.2111 38.1656 45.2412C37.8688 45.5984 37.501 45.9601 37.0479 46.2832C36.5874 46.9772 36.1293 47.7051 35.6778 48.4676Z" fill="#EA9127" stroke="white" stroke-width="2" stroke-linejoin="round"/>
<path d="M30.6918 61.2323C30.6918 61.7261 31.0523 62.1459 31.5404 62.2207C32.0284 62.2955 32.4981 62.0029 32.6459 61.5318C33.2609 59.5725 34.5591 56.3118 37.3367 53.0747C39.9339 50.048 42.732 48.3148 44.5131 47.3912C44.908 47.1863 45.1202 46.7452 45.0336 46.3088C44.8057 45.1601 44.62 43.877 44.524 42.4762L44.524 42.4762C44.4741 41.7488 44.4528 41.053 44.453 40.3922C44.4532 39.9843 44.2055 39.6171 43.8272 39.4645C43.4489 39.3118 43.0158 39.4043 42.7328 39.6981C40.8627 41.6396 38.8011 44.0992 36.8482 47.1325L37.689 47.6739L36.8482 47.1325C33.5094 52.3184 31.723 57.2632 30.7261 60.9727C30.7034 61.0573 30.6918 61.1446 30.6918 61.2322V61.2323Z" fill="#EA9127" stroke="white" stroke-width="2" stroke-linejoin="round"/>
<path d="M26.2881 1.51165C25.9528 2.08958 25.6072 2.7796 25.3037 3.57944L26.2881 1.51165ZM26.2881 1.51165C26.4621 1.2006 26.7933 1 27.1609 1H27.1609C27.3624 1 27.5553 1.06063 27.7172 1.16898M26.2881 1.51165L27.7172 1.16898M27.7172 1.16898C28.2488 1.51831 28.8151 1.93397 29.3924 2.42784L27.7172 1.16898ZM25.3223 8.12427C24.789 8.04621 24.4136 7.55952 24.4734 7.02386C24.5787 6.07998 24.8069 4.8882 25.3037 3.5795L25.3223 8.12427ZM25.3223 8.12427C25.8557 8.20234 26.3549 7.84369 26.4511 7.31336M25.3223 8.12427L26.4511 7.31336M26.4511 7.31336C26.4953 7.07009 26.6984 6.20275 27.398 5.7881L26.4511 7.31336ZM32.0917 5.36621C31.4481 4.47184 30.5694 3.43447 29.3925 2.4279L27.398 5.78809C28.169 5.33113 29.533 5.47606 30.5286 6.61011C30.8806 7.01103 31.4853 7.06503 31.9028 6.73283C32.3202 6.40063 32.4034 5.79923 32.0917 5.36621Z" fill="#903518" stroke="white" stroke-width="2" stroke-linejoin="round"/>
<path d="M50.0378 3.22907C48.8326 4.12739 47.9289 5.07541 47.2726 5.8826C46.9358 6.29678 46.9838 6.90243 47.3815 7.25848C47.7792 7.61454 48.3864 7.59545 48.761 7.21512C49.7857 6.17465 51.1364 6.11108 51.8823 6.61853L51.8823 6.61855C52.5984 7.10568 52.7237 8.0614 52.7422 8.27874C52.7876 8.81526 53.2497 9.21946 53.7876 9.19309C54.3254 9.16672 54.7457 8.71925 54.7385 8.18085C54.7258 7.23713 54.6077 5.99472 54.1878 4.6033L54.1878 4.60322C53.9349 3.76509 53.6246 3.0457 53.3208 2.45164C53.1555 2.11476 52.8103 1.89252 52.4232 1.89252H52.4231C52.2522 1.89252 52.0872 1.93617 51.9422 2.01577C51.3512 2.33418 50.7049 2.73186 50.0378 3.22907ZM50.0378 3.22907L50.635 4.03025L50.0378 3.22907Z" fill="#903518" stroke="white" stroke-width="2" stroke-linejoin="round"/>
<path d="M44.9636 38.3048C45.1907 38.235 45.3855 38.0866 45.5132 37.8862L50.4286 30.167C50.7073 29.7293 50.6049 29.1511 50.1928 28.8357C49.7807 28.5204 49.1958 28.5726 48.8461 28.9561C47.4564 30.4801 44.6203 33.1639 40.1912 34.7362C37.319 35.7558 34.7589 35.9596 32.9951 35.9517C32.5122 35.9496 32.0967 36.2929 32.0078 36.7676C31.9189 37.2423 32.1819 37.7128 32.6329 37.8855C34.085 38.4419 36.3893 39.1215 39.277 39.1412C41.654 39.1574 43.6107 38.7209 44.9636 38.3048Z" fill="#CC5520" stroke="white" stroke-width="2" stroke-linejoin="round"/>
<g clip-path="url(#clip0_7_231)">
<path d="M72.8654 45.1833C72.9541 41.3663 71.6973 37.8549 69.3086 35.2582C69.6627 34.6426 69.5733 33.8711 69.0611 33.4207C68.5489 32.9704 67.777 32.9751 67.2117 33.405C64.2985 31.3301 60.662 30.4825 56.9307 31.031C53.081 31.597 50.0251 32.964 47.3123 36.0278C47.2838 36.0495 47.246 36.0819 47.2042 36.1294C47.0609 36.303 47.0775 36.561 47.2412 36.7049L47.4049 36.8489C47.5422 36.9696 47.7472 36.9813 47.9049 36.8765C48.5164 36.4686 49.2352 36.258 49.9337 36.273C50.642 36.2873 51.2857 36.5349 51.7979 36.9853C52.3048 37.431 52.6327 38.0377 52.7328 38.7437C52.837 39.4345 52.7148 40.1698 52.3937 40.8331C52.3099 41.0029 52.3478 41.2047 52.4851 41.3254L52.7385 41.5483C52.8758 41.669 53.0808 41.6807 53.2385 41.576C54.5099 40.7371 56.1124 40.7886 57.1421 41.694C57.9235 42.3812 58.2727 43.4747 58.0736 44.5637L51.2112 52.3678C50.7515 52.8905 49.953 52.9468 49.4408 52.4964C48.9287 52.046 48.8876 51.2515 49.3473 50.7288C49.7048 50.3222 49.6752 49.7063 49.2739 49.3535C48.8779 49.0052 48.2633 49.0547 47.9058 49.4612C46.7264 50.8024 46.8366 52.828 48.1408 53.9749C49.4503 55.1263 51.4681 54.9719 52.6474 53.6307L59.482 45.8583C60.5743 45.4892 61.6877 45.6818 62.4797 46.3782C62.9866 46.824 63.3092 47.426 63.414 48.1267C63.5129 48.8129 63.3907 49.5481 63.0696 50.2114C62.9858 50.3812 63.0237 50.583 63.161 50.7038L63.4144 50.9266C63.5517 51.0473 63.7567 51.0591 63.9144 50.9543C64.5259 50.5464 65.2494 50.3305 65.9479 50.3455C66.6562 50.3598 67.3045 50.6021 67.8167 51.0525C68.3289 51.5029 68.6621 52.1142 68.7622 52.8202C68.8664 53.511 68.7395 54.2515 68.4131 54.9102C68.3294 55.08 68.3673 55.2818 68.5045 55.4025L68.5837 55.4722C68.6682 55.5465 68.7753 55.5844 68.8891 55.5722C69.0029 55.5599 69.1042 55.5085 69.1785 55.424C71.8246 52.3297 72.7731 49.1002 72.8654 45.1833V45.1833Z" fill="#333333"/>
</g>
<path d="M8.35945 9.5691C6.59986 12.1118 3.9967 16.5708 2.73363 22.6931C1.67729 27.8132 1.95682 32.1647 2.36787 35.0127C5.12722 37.026 7.37782 37.4325 8.89281 37.4481C12.4268 37.4843 16.4341 35.4385 20.2663 35.3458C21.0589 35.3267 21.8755 35.3512 21.8755 35.3512C23.5415 35.4013 24.9297 35.5807 25.9358 35.7491C25.0509 35.4993 11.0552 31.3178 8.16892 19.2056C7.2641 15.4086 7.72769 11.9937 8.35945 9.5691V9.5691Z" fill="#EA9127"/>
<path d="M2.65592 36.7525C3.29011 39.7599 4.70836 44.3804 8.15169 48.9453C15.4011 58.5567 26.1306 60.636 28.9572 61.0932C28.4839 58.3965 28.1049 54.5372 28.6484 49.9633C29.1945 45.3669 30.4773 41.6888 31.5753 39.1728C26.6193 36.6017 22.7335 36.3319 20.0594 36.587C15.0303 37.0669 11.4057 39.678 6.10969 38.2394C4.57369 37.8222 3.39531 37.1996 2.65598 36.7525L2.65592 36.7525Z" fill="#EA9127"/>
<path d="M10.0114 51.1735C12.3331 51.099 15.6041 50.7021 19.2017 49.2497C26.1106 46.4609 29.9933 41.4874 31.5753 39.1731C31.0005 40.4873 30.4627 41.9203 29.9995 43.4716C27.9386 50.3738 28.2439 56.6405 28.9572 61.0936C24.3494 60.287 17.9847 58.362 12.3653 53.4604C11.5057 52.7105 10.7234 51.9434 10.0114 51.1735V51.1735Z" fill="#903518"/>
<path d="M8.35994 9.5691C7.02312 11.4997 5.51064 14.0864 4.29279 17.321C2.47266 22.1553 2.04822 26.4776 2.00388 29.4381C2.7452 28.6863 3.49254 28.2133 4.14954 27.9067C9.34727 25.4805 15.5834 30.335 16.0528 30.7105C14.6177 29.6599 9.25886 25.4761 7.93723 18.0836C7.29176 14.4733 7.84721 11.4295 8.36 9.56916L8.35994 9.5691Z" fill="#F6D365"/>
<path d="M2.65598 36.7525C4.13233 38.4265 7.3176 41.5404 12.3375 43.0174C22.1932 45.917 30.499 39.9703 31.5752 39.1728C30.2116 41.2157 27.1429 45.2156 21.7089 48.0798C16.8779 50.6264 12.4195 51.0937 10.0114 51.1732C8.62713 49.66 6.90777 47.4735 5.4104 44.5656C3.86204 41.5587 3.07619 38.8004 2.65592 36.7525H2.65598Z" fill="#CC5520"/>
<path d="M27.142 2C26.5706 3.03263 25.82 4.69042 25.511 6.85241C25.2716 8.52712 25.3753 9.95837 25.532 10.9852C26.5904 10.602 27.761 10.2296 29.0371 9.89795C30.4251 9.53726 31.7292 9.27919 32.9236 9.09436C32.5396 8.09665 31.8998 6.75708 30.8264 5.37125C29.5341 3.70264 28.131 2.63541 27.1419 2L27.142 2Z" fill="#EA9127"/>
<path d="M52.4233 2.89252C51.4603 3.41197 50.0994 4.2868 48.7698 5.69537C47.4181 7.12739 46.6171 8.56184 46.1549 9.56314C47.2939 9.82332 48.5314 10.159 49.8421 10.5949C51.1457 11.0284 52.3319 11.4981 53.3953 11.9692C53.6404 10.9119 53.8891 9.2774 53.6706 7.30108C53.4574 5.37286 52.8816 3.86294 52.4234 2.89252H52.4233Z" fill="#EA9127"/>
<path d="M25.4634 12.4245C25.3027 14.1184 25.2425 16.2078 25.4819 18.5785C25.737 21.1053 26.2624 23.2583 26.7998 24.9528C28.2364 21.5531 30.0144 19.4278 31.4464 18.084C32.7525 16.8582 34.1981 15.8815 34.7904 13.9334C35.2454 12.4371 35.0001 11.015 34.7012 10.0123C33.4791 10.1391 32.1115 10.3531 30.6382 10.7047C28.6319 11.1835 26.8981 11.8055 25.4634 12.4245V12.4245Z" fill="#E39334"/>
<path d="M35.9312 9.89727C36.1239 10.5441 36.3555 11.6149 36.2343 12.9323C36.1882 13.4343 36.0756 14.5433 35.4464 15.7331C34.6514 17.2365 33.8091 17.3988 31.8866 19.6162C31.3934 20.185 31.0187 20.6705 30.7885 20.9781C33.5868 22.3825 36.3849 23.7869 39.1832 25.1914C40.5378 24.4723 46.7516 20.9986 47.8346 14.5214C47.9909 13.5864 48.0618 12.4601 47.913 11.1668C46.1434 10.6498 43.9517 10.1656 41.4133 9.93962C39.3567 9.75658 37.5071 9.78176 35.9312 9.8974L35.9312 9.89727Z" fill="#F6D365"/>
<path d="M53.4497 13.2442C53.5602 14.1838 53.6249 15.2007 53.6162 16.2855C53.5845 20.2749 52.5744 23.5829 51.5763 25.9392C51.5718 25.7516 51.4811 23.5744 49.5722 22.3325C47.7512 21.1478 45.8268 21.8233 45.6211 21.8996C46.389 21.0401 47.3895 19.7144 48.1505 17.8968C49.2632 15.2398 49.3101 12.8541 49.2338 11.5151C50.6392 12.0915 52.0444 12.6679 53.4497 13.2443V13.2442Z" fill="#EA9127"/>
<path d="M27.1205 26.2646C29.0773 29.827 31.0341 33.3893 32.991 36.9516C34.2687 37.4443 36.2224 38.0289 38.6634 38.1303C41.2386 38.2372 43.329 37.7637 44.6699 37.3489C46.8562 33.9172 49.0424 30.4855 51.2286 27.0538C50.5167 27.2463 49.5829 27.4622 48.4758 27.6209C47.5421 27.7547 46.3983 27.8602 44.8971 27.8534C41.9109 27.84 41.755 27.4014 38.972 27.3087C36.4671 27.2255 36.4546 27.576 33.6092 27.4365C31.9145 27.3534 30.6383 27.1663 29.4939 26.9166C28.5264 26.7055 27.7201 26.4644 27.1206 26.2647L27.1205 26.2646Z" fill="#F6D365"/>
<path d="M32.9539 39.1139C34.6004 41.0922 36.2471 43.0705 37.8937 45.0487C36.3671 47.2112 34.6899 49.9414 33.1754 53.2411C31.7825 56.2757 30.8483 59.0922 30.2097 61.5005C29.5441 57.3318 29.2006 51.3098 31.0374 44.5423C31.5821 42.5355 32.2476 40.7242 32.9538 39.114L32.9539 39.1139Z" fill="#F6D365"/>
<path d="M43.453 40.3918C41.3674 42.5567 38.8835 45.5424 36.6106 49.43C33.9961 53.9018 32.5367 58.0685 31.6918 61.2323C34.7949 61.7502 37.343 61.6922 39.0918 61.5387C41.9716 61.2861 43.1499 60.734 44 60.1261C44.3614 59.8677 45.4743 59.0719 46.1016 57.7699C47.4503 54.9707 45.3361 52.3623 44.1602 47.0144C43.8245 45.4878 43.4551 43.2369 43.4529 40.3918H43.453Z" fill="#903518"/>
<path d="M37.8673 26.5657C37.1491 26.0873 36.172 25.4619 34.979 24.7723C34.3396 24.4028 33.8371 24.1298 33.2891 23.8325C32.48 23.3938 31.4222 22.8337 30.1601 22.2021C29.9855 22.5518 29.6977 23.2454 29.7024 24.1602C29.7065 24.9627 29.9338 25.5829 30.0904 25.9278C31.0653 25.8914 32.1242 25.8953 33.2547 25.9622C34.9688 26.0638 36.516 26.2906 37.8674 26.5658L37.8673 26.5657Z" fill="#532322"/>
<path d="M40.295 26.6506C41.6676 25.8689 43.1733 25.0828 44.8116 24.3247C45.9918 23.7786 47.1363 23.2955 48.235 22.8673C48.3861 23.2284 48.643 23.9813 48.5392 24.9404C48.458 25.6895 48.1905 26.2524 48.0063 26.5733C47.0335 26.4625 45.9668 26.3871 44.8184 26.3741C43.1406 26.355 41.621 26.4727 40.295 26.6506V26.6506Z" fill="#532322"/>
<path d="M34.5002 38.817C35.607 39.1003 37.0302 39.3618 38.6967 39.4188C40.3832 39.4765 41.8358 39.3084 42.967 39.0973C41.4918 40.6714 40.0166 42.2455 38.5414 43.8194C37.1943 42.152 35.8472 40.4845 34.5002 38.817V38.817Z" fill="#532322"/>
<path d="M40.2643 26.6569C41.015 26.2314 42.0347 25.6779 43.2742 25.076C43.9386 24.7533 44.4594 24.5172 45.0273 24.2602C45.8658 23.8807 46.9613 23.3983 48.2656 22.8591C48.4146 23.2204 48.6518 23.9329 48.5812 24.845C48.5194 25.6452 48.2481 26.2473 48.0672 26.58C47.0974 26.4736 46.041 26.4013 44.9086 26.3868C43.1916 26.3648 41.6321 26.4797 40.2644 26.657L40.2643 26.6569Z" fill="#532322"/>
<path d="M26.7995 24.9527C26.0137 22.3033 25.3718 19.0382 25.3367 15.2946C25.3272 14.2873 25.3624 13.3239 25.4307 12.4087C26.8328 11.8158 28.511 11.2213 30.4414 10.7523C31.9908 10.3759 33.4255 10.1477 34.701 10.0123C34.4366 10.5811 33.9805 11.455 33.2516 12.3971C31.1421 15.1241 29.0566 15.4395 27.6909 17.0454C26.6763 18.2387 25.7956 20.4543 26.7996 24.9527L26.7995 24.9527Z" fill="#CC5520"/>
<path d="M45.7792 19.494C44.5646 19.2188 42.4928 18.574 40.4566 16.942C37.2903 14.4045 36.251 11.1158 35.9308 9.89733C37.5711 9.77695 39.5286 9.75325 41.7203 9.96845C44.1334 10.2054 46.2201 10.6721 47.9126 11.1667C48.0121 12.0458 48.0471 13.2045 47.8233 14.5315C47.4327 16.8477 46.4452 18.5404 45.7792 19.4939V19.494Z" fill="#CC5520"/>
<path d="M49.2331 11.5151C50.6384 12.0915 52.0437 12.6679 53.449 13.2443C53.6119 14.664 53.6868 16.3864 53.5107 18.3274C53.22 21.5312 52.3548 24.1255 51.5755 25.9393C51.8099 25.3054 53.6183 20.1868 50.8175 16.6355C50.4162 16.1267 49.8398 15.548 49.0077 15.0297C49.0801 14.6433 49.1418 14.2275 49.1858 13.7846C49.2686 12.949 49.2712 12.1854 49.2332 11.5151L49.2331 11.5151Z" fill="#CC5520"/>
<path d="M46.1549 9.56314C46.6019 8.5958 47.3328 7.29281 48.5122 5.97573C49.9204 4.40321 51.3986 3.44625 52.4233 2.89252C52.8576 3.81444 53.347 5.11256 53.5935 6.72281C53.9338 8.94669 53.6634 10.8012 53.3952 11.9692C53.2345 10.3915 52.2197 9.03427 50.7719 8.46722C49.1836 7.84526 47.3418 8.2788 46.1549 9.56314V9.56314Z" fill="#CC5520"/>
<path d="M25.5324 10.9852C25.3736 9.94555 25.2658 8.46734 25.5292 6.73152C25.8486 4.62609 26.5823 3.01142 27.1423 2C28.0247 2.56661 29.1536 3.42356 30.2503 4.67261C31.6939 6.31688 32.4877 7.96416 32.924 9.09436C31.8266 7.63403 29.9383 7.03596 28.2772 7.59802C26.8159 8.09249 25.7502 9.4104 25.5325 10.9852H25.5324Z" fill="#CC5520"/>
<path d="M36.3159 52.563C33.5027 55.9155 32.2571 59.28 31.6918 61.2321C33.1928 58.566 37.4346 51.8548 43.9642 51.2671C44.4175 51.2263 44.8886 51.2144 45.3771 51.2375C45.0572 50.3391 44.7507 49.3637 44.4763 48.3146C44.3132 47.6913 44.1732 47.0865 44.0527 46.5031C42.2282 47.3985 39.13 49.2094 36.3159 52.563V52.563Z" fill="#CC5520"/>
<path d="M30.7075 45.848C29.9562 49.2063 29.4458 53.3555 29.8009 58.0564C29.8921 59.2628 30.0332 60.4122 30.2097 61.5008C30.4902 60.4931 30.8095 59.4465 31.1734 58.367C31.6699 56.8943 32.1965 55.5178 32.7326 54.2404C32.0576 51.4429 31.3826 48.6453 30.7075 45.8479V45.848Z" fill="#CC5520"/>
<path d="M32.991 36.9516C31.0342 33.3893 29.0774 29.827 27.1205 26.2646C28.1177 28.0971 29.2767 29.1133 30.1007 29.6867C35.2174 33.2473 42.84 30.4723 46.7952 29.0277C48.7896 28.2993 50.3284 27.5344 51.2197 27.0631C49.0364 30.4917 46.8531 33.9203 44.6699 37.3489C43.3556 37.7555 41.3328 38.2147 38.843 38.1365C36.3069 38.0568 34.2854 37.4508 32.9909 36.9516H32.991Z" fill="#EA9127"/>
<path d="M35.9311 9.89783C36.1508 10.5986 36.4247 11.8117 36.2174 13.291C36.1485 13.7829 36.0178 14.9104 35.2684 16.0462C34.6813 16.9359 34.2277 17.2221 33.1589 18.2697C32.5417 18.8746 31.6984 19.7689 30.7885 20.9785C31.815 21.3758 33.0168 21.7356 34.379 21.9595C38.9927 22.7179 42.8393 21.4897 44.9255 20.6179C45.2102 20.2434 45.4948 19.8689 45.7796 19.4944C43.8134 18.4033 41.1949 16.629 38.7518 13.8257C37.5565 12.4543 36.6371 11.1049 35.9312 9.89777L35.9311 9.89783Z" fill="#EA9127"/>
<path d="M36.2389 45.622C33.9348 47.0706 31.1694 46.0296 30.7073 45.8477C30.6882 46.88 30.6892 47.9399 30.7136 49.0262C30.7833 52.1287 31.0347 55.0329 31.3975 57.7139C32.3679 54.912 33.7322 51.7541 35.6778 48.4676C36.4051 47.2391 37.1499 46.1005 37.8934 45.0488C37.7485 44.8746 37.6035 44.7003 37.4585 44.5261C37.1513 44.9101 36.7529 45.2988 36.2389 45.622V45.622Z" fill="#EA9127"/>
<path d="M31.6918 61.2323C32.3323 59.1918 33.6842 55.7958 36.5778 52.4235C39.2834 49.2705 42.1977 47.4654 44.0527 46.5034C43.8174 45.317 43.6255 43.9916 43.5263 42.5446C43.4748 41.7932 43.4528 41.0744 43.453 40.3918C41.6209 42.2939 39.6017 44.703 37.689 47.6739C34.419 52.7528 32.6689 57.5966 31.6918 61.2322V61.2323Z" fill="#EA9127"/>
<path d="M27.1609 2C26.8469 2.53976 26.5229 3.18523 26.2386 3.9343C25.7773 5.14958 25.5652 6.25685 25.4672 7.13482C25.5143 6.87496 25.7743 5.58806 26.8881 4.92785C28.1582 4.17506 30.0371 4.53461 31.2801 5.95035C30.6743 5.10858 29.8482 4.13349 28.7425 3.1878C28.1974 2.72152 27.6627 2.32937 27.1609 2H27.1609Z" fill="#903518"/>
<path d="M52.4231 2.89252C52.7059 3.44368 52.9951 4.11228 53.2305 4.89217C53.6177 6.17549 53.7269 7.32209 53.7386 8.19429C53.7194 7.9675 53.5785 6.56296 52.4448 5.79173C51.2252 4.96206 49.345 5.19693 48.0485 6.51344C48.6631 5.75752 49.5086 4.87077 50.6354 4.03085C51.2617 3.56406 51.8685 3.191 52.4232 2.89252H52.4231Z" fill="#903518"/>
<path d="M44.6697 37.349C46.3082 34.776 47.9466 32.2029 49.5851 29.6299C48.1339 31.2212 45.1664 34.0311 40.5258 35.6785C37.5164 36.7469 34.8354 36.9599 32.9907 36.9517C34.3669 37.479 36.5495 38.1226 39.2838 38.1412C41.5346 38.1566 43.3878 37.7432 44.6697 37.349Z" fill="#CC5520"/>
<defs>
<clipPath id="clip0_7_231">
<rect width="36" height="36" fill="white" transform="translate(57.7725 19) rotate(41.3263)"/>
</clipPath>
</defs>
</svg>
