<svg width="424" height="38" viewBox="0 0 424 38" fill="none" xmlns="http://www.w3.org/2000/svg">
<g filter="url(#filter0_i_1_79)">
<path d="M295.55 1.08H307.39L294.59 35H281.79L268.99 1.08H280.83L288.19 24.12L295.55 1.08Z" fill="#9F9F9F"/>
</g>
<g filter="url(#filter1_i_1_79)">
<path d="M263.223 25.4C263.223 28.6 262.305 31.1173 260.47 32.952C258.678 34.744 256.182 35.64 252.982 35.64H238.262C235.062 35.64 232.545 34.744 230.71 32.952C228.918 31.1173 228.022 28.6 228.022 25.4V10.68C228.022 7.48 228.918 4.984 230.71 3.192C232.545 1.35733 235.062 0.439999 238.262 0.439999H252.982C256.182 0.439999 258.678 1.35733 260.47 3.192C262.305 4.984 263.223 7.48 263.223 10.68V25.4ZM252.022 11.64C252.022 9.93333 251.169 9.08 249.462 9.08H241.783C240.076 9.08 239.222 9.93333 239.222 11.64V24.44C239.222 26.1467 240.076 27 241.783 27H249.462C251.169 27 252.022 26.1467 252.022 24.44V11.64Z" fill="#9F9F9F"/>
</g>
<g filter="url(#filter2_i_1_79)">
<path d="M202.75 9.72C200.489 9.72 197.929 10.1467 195.07 11V35H183.87V1.08H193.79L194.43 4.28C196.435 2.95733 198.483 1.99733 200.574 1.4C202.707 0.759998 204.499 0.439999 205.95 0.439999H208.83C211.731 0.439999 214.057 1.31467 215.806 3.064C217.555 4.81333 218.43 7.13867 218.43 10.04V35H207.23V11.96C207.23 11.32 207.017 10.7867 206.59 10.36C206.163 9.93333 205.63 9.72 204.99 9.72H202.75Z" fill="#9F9F9F"/>
</g>
<g filter="url(#filter3_i_1_79)">
<path d="M154.768 26.68C157.029 26.68 159.589 26.2533 162.448 25.4V21.56H153.168C152.528 21.56 151.994 21.7733 151.568 22.2C151.141 22.6267 150.928 23.16 150.928 23.8V24.44C150.928 25.08 151.141 25.6133 151.568 26.04C151.994 26.4667 152.528 26.68 153.168 26.68H154.768ZM142.928 1.72C150.736 0.866665 157.775 0.439999 164.048 0.439999C166.949 0.439999 169.274 1.31467 171.023 3.064C172.773 4.81333 173.648 7.13867 173.648 10.04V35H163.728L163.088 31.8C161.082 33.1227 159.013 34.104 156.88 34.744C154.789 35.3413 153.018 35.64 151.568 35.64H149.327C146.426 35.64 144.101 34.7653 142.352 33.016C140.602 31.2667 139.728 28.9413 139.728 26.04V23.16C139.728 20.2587 140.602 17.9333 142.352 16.184C144.101 14.4347 146.426 13.56 149.327 13.56H162.448V11C162.448 10.36 162.234 9.82667 161.807 9.4C161.381 8.97333 160.848 8.76 160.208 8.76C157.434 8.76 154.362 8.888 150.992 9.144C147.664 9.4 144.976 9.592 142.928 9.72V1.72Z" fill="#9F9F9F"/>
</g>
<g filter="url(#filter4_i_1_79)">
<path d="M100.38 0.439999C103.836 0.439999 106.503 1.72 108.38 4.28C110.343 2.95733 112.455 1.99733 114.716 1.4C117.02 0.759998 119.068 0.439999 120.86 0.439999H121.5C124.401 0.439999 126.727 1.31467 128.476 3.064C130.225 4.81333 131.1 7.13867 131.1 10.04V35H119.9V11.96C119.9 11.32 119.687 10.7867 119.26 10.36C118.833 9.93333 118.3 9.72 117.66 9.72H117.34C115.42 9.72 112.967 10.1467 109.98 11V35H98.78V11.96C98.78 11.32 98.5667 10.7867 98.14 10.36C97.7133 9.93333 97.18 9.72 96.54 9.72H96.22C94.3 9.72 91.8467 10.1467 88.86 11V35H77.66V1.08H87.58L88.22 4.28C90.2253 2.95733 92.2733 1.99733 94.364 1.4C96.4973 0.759998 98.2893 0.439999 99.74 0.439999H100.38Z" fill="#9F9F9F"/>
</g>
<g filter="url(#filter5_i_1_79)">
<path d="M67.4275 25.4C67.4275 28.6 66.5102 31.1173 64.6755 32.952C62.8835 34.744 60.3875 35.64 57.1875 35.64H42.4675C39.2675 35.64 36.7502 34.744 34.9155 32.952C33.1235 31.1173 32.2275 28.6 32.2275 25.4V10.68C32.2275 7.48 33.1235 4.984 34.9155 3.192C36.7502 1.35733 39.2675 0.439999 42.4675 0.439999H57.1875C60.3875 0.439999 62.8835 1.35733 64.6755 3.192C66.5102 4.984 67.4275 7.48 67.4275 10.68V25.4ZM56.2275 11.64C56.2275 9.93333 55.3742 9.08 53.6675 9.08H45.9875C44.2808 9.08 43.4275 9.93333 43.4275 11.64V24.44C43.4275 26.1467 44.2808 27 45.9875 27H53.6675C55.3742 27 56.2275 26.1467 56.2275 24.44V11.64Z" fill="#9F9F9F"/>
</g>
<g filter="url(#filter6_i_1_79)">
<path d="M19.72 10.36C17.032 10.36 14.2587 11 11.4 12.28V35H0.199997V1.08H10.12L10.76 5.24C14.4293 2.04 18.2693 0.439999 22.28 0.439999H25.16V10.36H19.72Z" fill="#9F9F9F"/>
</g>
<g filter="url(#filter7_i_1_79)">
<path d="M404.219 23.4L409.619 4.2H421.019L411.119 36H400.019L394.019 16.8L388.019 36H376.919L367.019 4.2H378.419L383.819 23.4L389.219 4.2H398.819L404.219 23.4Z" fill="white"/>
</g>
<g filter="url(#filter8_i_1_79)">
<path d="M352.914 4.2H364.014L352.014 36H340.014L328.014 4.2H339.114L346.014 25.8L352.914 4.2Z" fill="white"/>
</g>
<g filter="url(#filter9_i_1_79)">
<path d="M311.8 27H322.6V36H311.8V27Z" fill="white"/>
</g>
<g filter="url(#filter10_i_1_79)">
<path fill-rule="evenodd" clip-rule="evenodd" d="M411.119 36H400.019L394.019 16.8L388.019 36H376.919L367.019 4.2H378.419L383.819 23.4L389.219 4.2H398.819L404.219 23.4L409.619 4.2H421.019L411.119 36ZM404.219 16.013L408.104 2.2H423.736L412.591 38H398.548L394.019 23.5052L389.489 38H375.447L364.301 2.2H379.934L383.819 16.013L387.704 2.2H400.334L404.219 16.013Z" fill="#9F9F9F"/>
</g>
<g filter="url(#filter11_i_1_79)">
<path fill-rule="evenodd" clip-rule="evenodd" d="M351.453 2.2H366.906L353.397 38H338.631L325.122 2.2H340.575L346.014 19.2274L351.453 2.2ZM346.014 25.8L339.114 4.2H328.014L340.014 36H352.014L364.014 4.2H352.914L346.014 25.8Z" fill="#9F9F9F"/>
</g>
<g filter="url(#filter12_i_1_79)">
<path fill-rule="evenodd" clip-rule="evenodd" d="M311.8 27V36H322.6V27H311.8ZM309.8 25H324.6V38H309.8V25Z" fill="#9F9F9F"/>
</g>
<defs>
<filter id="filter0_i_1_79" x="268.99" y="1.08" width="38.4" height="37.92" filterUnits="userSpaceOnUse" color-interpolation-filters="sRGB">
<feFlood flood-opacity="0" result="BackgroundImageFix"/>
<feBlend mode="normal" in="SourceGraphic" in2="BackgroundImageFix" result="shape"/>
<feColorMatrix in="SourceAlpha" type="matrix" values="0 0 0 0 0 0 0 0 0 0 0 0 0 0 0 0 0 0 127 0" result="hardAlpha"/>
<feOffset dy="4"/>
<feGaussianBlur stdDeviation="2.5"/>
<feComposite in2="hardAlpha" operator="arithmetic" k2="-1" k3="1"/>
<feColorMatrix type="matrix" values="0 0 0 0 0 0 0 0 0 0 0 0 0 0 0 0 0 0 0.25 0"/>
<feBlend mode="normal" in2="shape" result="effect1_innerShadow_1_79"/>
</filter>
<filter id="filter1_i_1_79" x="228.022" y="0.439999" width="35.2" height="39.2" filterUnits="userSpaceOnUse" color-interpolation-filters="sRGB">
<feFlood flood-opacity="0" result="BackgroundImageFix"/>
<feBlend mode="normal" in="SourceGraphic" in2="BackgroundImageFix" result="shape"/>
<feColorMatrix in="SourceAlpha" type="matrix" values="0 0 0 0 0 0 0 0 0 0 0 0 0 0 0 0 0 0 127 0" result="hardAlpha"/>
<feOffset dy="4"/>
<feGaussianBlur stdDeviation="2.5"/>
<feComposite in2="hardAlpha" operator="arithmetic" k2="-1" k3="1"/>
<feColorMatrix type="matrix" values="0 0 0 0 0 0 0 0 0 0 0 0 0 0 0 0 0 0 0.25 0"/>
<feBlend mode="normal" in2="shape" result="effect1_innerShadow_1_79"/>
</filter>
<filter id="filter2_i_1_79" x="183.87" y="0.439999" width="34.56" height="38.56" filterUnits="userSpaceOnUse" color-interpolation-filters="sRGB">
<feFlood flood-opacity="0" result="BackgroundImageFix"/>
<feBlend mode="normal" in="SourceGraphic" in2="BackgroundImageFix" result="shape"/>
<feColorMatrix in="SourceAlpha" type="matrix" values="0 0 0 0 0 0 0 0 0 0 0 0 0 0 0 0 0 0 127 0" result="hardAlpha"/>
<feOffset dy="4"/>
<feGaussianBlur stdDeviation="2.5"/>
<feComposite in2="hardAlpha" operator="arithmetic" k2="-1" k3="1"/>
<feColorMatrix type="matrix" values="0 0 0 0 0 0 0 0 0 0 0 0 0 0 0 0 0 0 0.25 0"/>
<feBlend mode="normal" in2="shape" result="effect1_innerShadow_1_79"/>
</filter>
<filter id="filter3_i_1_79" x="139.728" y="0.439999" width="33.92" height="39.2" filterUnits="userSpaceOnUse" color-interpolation-filters="sRGB">
<feFlood flood-opacity="0" result="BackgroundImageFix"/>
<feBlend mode="normal" in="SourceGraphic" in2="BackgroundImageFix" result="shape"/>
<feColorMatrix in="SourceAlpha" type="matrix" values="0 0 0 0 0 0 0 0 0 0 0 0 0 0 0 0 0 0 127 0" result="hardAlpha"/>
<feOffset dy="4"/>
<feGaussianBlur stdDeviation="2.5"/>
<feComposite in2="hardAlpha" operator="arithmetic" k2="-1" k3="1"/>
<feColorMatrix type="matrix" values="0 0 0 0 0 0 0 0 0 0 0 0 0 0 0 0 0 0 0.25 0"/>
<feBlend mode="normal" in2="shape" result="effect1_innerShadow_1_79"/>
</filter>
<filter id="filter4_i_1_79" x="77.66" y="0.439999" width="53.44" height="38.56" filterUnits="userSpaceOnUse" color-interpolation-filters="sRGB">
<feFlood flood-opacity="0" result="BackgroundImageFix"/>
<feBlend mode="normal" in="SourceGraphic" in2="BackgroundImageFix" result="shape"/>
<feColorMatrix in="SourceAlpha" type="matrix" values="0 0 0 0 0 0 0 0 0 0 0 0 0 0 0 0 0 0 127 0" result="hardAlpha"/>
<feOffset dy="4"/>
<feGaussianBlur stdDeviation="2.5"/>
<feComposite in2="hardAlpha" operator="arithmetic" k2="-1" k3="1"/>
<feColorMatrix type="matrix" values="0 0 0 0 0 0 0 0 0 0 0 0 0 0 0 0 0 0 0.25 0"/>
<feBlend mode="normal" in2="shape" result="effect1_innerShadow_1_79"/>
</filter>
<filter id="filter5_i_1_79" x="32.2275" y="0.439999" width="35.2" height="39.2" filterUnits="userSpaceOnUse" color-interpolation-filters="sRGB">
<feFlood flood-opacity="0" result="BackgroundImageFix"/>
<feBlend mode="normal" in="SourceGraphic" in2="BackgroundImageFix" result="shape"/>
<feColorMatrix in="SourceAlpha" type="matrix" values="0 0 0 0 0 0 0 0 0 0 0 0 0 0 0 0 0 0 127 0" result="hardAlpha"/>
<feOffset dy="4"/>
<feGaussianBlur stdDeviation="2.5"/>
<feComposite in2="hardAlpha" operator="arithmetic" k2="-1" k3="1"/>
<feColorMatrix type="matrix" values="0 0 0 0 0 0 0 0 0 0 0 0 0 0 0 0 0 0 0.25 0"/>
<feBlend mode="normal" in2="shape" result="effect1_innerShadow_1_79"/>
</filter>
<filter id="filter6_i_1_79" x="0.199997" y="0.439999" width="24.96" height="38.56" filterUnits="userSpaceOnUse" color-interpolation-filters="sRGB">
<feFlood flood-opacity="0" result="BackgroundImageFix"/>
<feBlend mode="normal" in="SourceGraphic" in2="BackgroundImageFix" result="shape"/>
<feColorMatrix in="SourceAlpha" type="matrix" values="0 0 0 0 0 0 0 0 0 0 0 0 0 0 0 0 0 0 127 0" result="hardAlpha"/>
<feOffset dy="4"/>
<feGaussianBlur stdDeviation="2.5"/>
<feComposite in2="hardAlpha" operator="arithmetic" k2="-1" k3="1"/>
<feColorMatrix type="matrix" values="0 0 0 0 0 0 0 0 0 0 0 0 0 0 0 0 0 0 0.25 0"/>
<feBlend mode="normal" in2="shape" result="effect1_innerShadow_1_79"/>
</filter>
<filter id="filter7_i_1_79" x="367.019" y="4.2" width="54" height="35.8" filterUnits="userSpaceOnUse" color-interpolation-filters="sRGB">
<feFlood flood-opacity="0" result="BackgroundImageFix"/>
<feBlend mode="normal" in="SourceGraphic" in2="BackgroundImageFix" result="shape"/>
<feColorMatrix in="SourceAlpha" type="matrix" values="0 0 0 0 0 0 0 0 0 0 0 0 0 0 0 0 0 0 127 0" result="hardAlpha"/>
<feOffset dy="4"/>
<feGaussianBlur stdDeviation="2.5"/>
<feComposite in2="hardAlpha" operator="arithmetic" k2="-1" k3="1"/>
<feColorMatrix type="matrix" values="0 0 0 0 0 0 0 0 0 0 0 0 0 0 0 0 0 0 0.25 0"/>
<feBlend mode="normal" in2="shape" result="effect1_innerShadow_1_79"/>
</filter>
<filter id="filter8_i_1_79" x="328.014" y="4.2" width="36" height="35.8" filterUnits="userSpaceOnUse" color-interpolation-filters="sRGB">
<feFlood flood-opacity="0" result="BackgroundImageFix"/>
<feBlend mode="normal" in="SourceGraphic" in2="BackgroundImageFix" result="shape"/>
<feColorMatrix in="SourceAlpha" type="matrix" values="0 0 0 0 0 0 0 0 0 0 0 0 0 0 0 0 0 0 127 0" result="hardAlpha"/>
<feOffset dy="4"/>
<feGaussianBlur stdDeviation="2.5"/>
<feComposite in2="hardAlpha" operator="arithmetic" k2="-1" k3="1"/>
<feColorMatrix type="matrix" values="0 0 0 0 0 0 0 0 0 0 0 0 0 0 0 0 0 0 0.25 0"/>
<feBlend mode="normal" in2="shape" result="effect1_innerShadow_1_79"/>
</filter>
<filter id="filter9_i_1_79" x="311.8" y="27" width="10.8" height="13" filterUnits="userSpaceOnUse" color-interpolation-filters="sRGB">
<feFlood flood-opacity="0" result="BackgroundImageFix"/>
<feBlend mode="normal" in="SourceGraphic" in2="BackgroundImageFix" result="shape"/>
<feColorMatrix in="SourceAlpha" type="matrix" values="0 0 0 0 0 0 0 0 0 0 0 0 0 0 0 0 0 0 127 0" result="hardAlpha"/>
<feOffset dy="4"/>
<feGaussianBlur stdDeviation="2.5"/>
<feComposite in2="hardAlpha" operator="arithmetic" k2="-1" k3="1"/>
<feColorMatrix type="matrix" values="0 0 0 0 0 0 0 0 0 0 0 0 0 0 0 0 0 0 0.25 0"/>
<feBlend mode="normal" in2="shape" result="effect1_innerShadow_1_79"/>
</filter>
<filter id="filter10_i_1_79" x="364.301" y="2.2" width="59.4346" height="39.8" filterUnits="userSpaceOnUse" color-interpolation-filters="sRGB">
<feFlood flood-opacity="0" result="BackgroundImageFix"/>
<feBlend mode="normal" in="SourceGraphic" in2="BackgroundImageFix" result="shape"/>
<feColorMatrix in="SourceAlpha" type="matrix" values="0 0 0 0 0 0 0 0 0 0 0 0 0 0 0 0 0 0 127 0" result="hardAlpha"/>
<feOffset dy="4"/>
<feGaussianBlur stdDeviation="2.5"/>
<feComposite in2="hardAlpha" operator="arithmetic" k2="-1" k3="1"/>
<feColorMatrix type="matrix" values="0 0 0 0 0 0 0 0 0 0 0 0 0 0 0 0 0 0 0.25 0"/>
<feBlend mode="normal" in2="shape" result="effect1_innerShadow_1_79"/>
</filter>
<filter id="filter11_i_1_79" x="325.122" y="2.2" width="41.7848" height="39.8" filterUnits="userSpaceOnUse" color-interpolation-filters="sRGB">
<feFlood flood-opacity="0" result="BackgroundImageFix"/>
<feBlend mode="normal" in="SourceGraphic" in2="BackgroundImageFix" result="shape"/>
<feColorMatrix in="SourceAlpha" type="matrix" values="0 0 0 0 0 0 0 0 0 0 0 0 0 0 0 0 0 0 127 0" result="hardAlpha"/>
<feOffset dy="4"/>
<feGaussianBlur stdDeviation="2.5"/>
<feComposite in2="hardAlpha" operator="arithmetic" k2="-1" k3="1"/>
<feColorMatrix type="matrix" values="0 0 0 0 0 0 0 0 0 0 0 0 0 0 0 0 0 0 0.25 0"/>
<feBlend mode="normal" in2="shape" result="effect1_innerShadow_1_79"/>
</filter>
<filter id="filter12_i_1_79" x="309.8" y="25" width="14.8" height="17" filterUnits="userSpaceOnUse" color-interpolation-filters="sRGB">
<feFlood flood-opacity="0" result="BackgroundImageFix"/>
<feBlend mode="normal" in="SourceGraphic" in2="BackgroundImageFix" result="shape"/>
<feColorMatrix in="SourceAlpha" type="matrix" values="0 0 0 0 0 0 0 0 0 0 0 0 0 0 0 0 0 0 127 0" result="hardAlpha"/>
<feOffset dy="4"/>
<feGaussianBlur stdDeviation="2.5"/>
<feComposite in2="hardAlpha" operator="arithmetic" k2="-1" k3="1"/>
<feColorMatrix type="matrix" values="0 0 0 0 0 0 0 0 0 0 0 0 0 0 0 0 0 0 0.25 0"/>
<feBlend mode="normal" in2="shape" result="effect1_innerShadow_1_79"/>
</filter>
</defs>
</svg>
